<svg width="81" height="21" viewBox="0 0 81 21" fill="none" xmlns="http://www.w3.org/2000/svg">
<path d="M5.93359 14.7539C8.83073 14.7539 10.2793 13.0482 10.2793 9.63672C10.2793 6.73307 8.83073 5.28125 5.93359 5.28125H3.05273V14.7539H5.93359ZM0.464844 17V3.03516H5.93359C10.556 3.03516 12.8672 5.23568 12.8672 9.63672C12.8672 14.5456 10.556 17 5.93359 17H0.464844ZM17.418 3.03516V5.08594H14.8301V3.03516H17.418ZM17.418 6.74609V17H14.8301V6.74609H17.418ZM26.4316 9.07031C26.0085 8.91406 25.4062 8.83594 24.625 8.83594C22.8346 8.83594 21.9395 9.82227 21.9395 11.7949C21.9395 13.7025 22.7109 14.6562 24.2539 14.6562C24.9961 14.6562 25.722 14.4805 26.4316 14.1289V9.07031ZM29.0195 16.2188C29.0195 19.2135 27.2194 20.7109 23.6191 20.7109C22.3561 20.7109 21.2363 20.5482 20.2598 20.2227V18.1719C21.2559 18.4974 22.3822 18.6602 23.6387 18.6602C25.5007 18.6602 26.4316 17.8789 26.4316 16.3164C25.6634 16.6419 24.8366 16.8047 23.9512 16.8047C20.9043 16.8047 19.3809 15.1413 19.3809 11.8145C19.3809 8.43555 21.1549 6.74609 24.7031 6.74609C25.8945 6.74609 27.3333 6.88607 29.0195 7.16602V16.2188ZM34.0586 3.03516V5.08594H31.4707V3.03516H34.0586ZM34.0586 6.74609V17H31.4707V6.74609H34.0586ZM36.3633 5.08594H38.2773L38.668 6.74609H41.2461V8.79688H38.9512V13.5137C38.9512 14.4707 39.3646 14.9492 40.1914 14.9492H41.2461V17H38.9414C37.2227 17 36.3633 16.0788 36.3633 14.2363V5.08594ZM67.376 16.9775V0.94043H74.6758C77.9551 0.94043 79.5947 2.37419 79.5947 5.2417C79.5947 7.18083 78.3182 8.78678 75.7651 10.0596L80.8525 17H77.1016L72.2163 10.0034V8.64453C75.0614 8.15788 76.4839 7.05355 76.4839 5.33154C76.4839 4.1486 75.8175 3.55713 74.4849 3.55713H70.4082V16.9775H67.376Z" fill="#C5D7C6"/>
<path d="M45.1284 17H42.0737L48.8906 0.94043H52.0913L59.0542 17H55.8535L54.0229 12.6201H48.6885L49.7104 10.0371H52.9448L50.418 4.00635L45.1284 17ZM63.9956 0.94043V17H61.0195V0.94043H63.9956Z" fill="#1A7358"/>
</svg>
